<?xml version="1.0" encoding="UTF-8"?>
<svg xmlns="http://www.w3.org/2000/svg"
  xmlns:xlink="http://www.w3.org/1999/xlink" viewBox="0 0 517.58 472.48">
  <defs>
    <linearGradient id="bg-linear-gradient" x1="133.84" y1="432.95" x2="469.79" y2="39.22" gradientUnits="userSpaceOnUse">
      <stop offset=".24" stop-color="#06b6d4"/>
      <stop offset="1" stop-color="#3b82f6"/>
    </linearGradient>
  </defs>
  <path d="m417.49,123.76c-3.63,3.19-6.82,5.8-9.79,8.63-24.06,22.89-48.84,44.99-73.22,67.52-16.47,15.22-33.37,29.96-49.64,45.39-15.46,14.66-31.68,28.52-47.5,42.81-11.64,10.51-23.18,21.13-34.74,31.73-4.34,3.97-8.52,8.12-12.93,12.01-8.7,7.69-18.33,10.54-29.88,6.68-24.17-8.09-48.51-15.69-72.75-23.58-22.02-7.18-44-14.47-65.99-21.75-5.14-1.7-10-3.84-14.09-7.64-12.12-11.23-6.58-29.29,2.91-36.16,3.4-2.46,7.21-4.17,10.89-6.1,31.59-16.54,63.17-33.1,94.81-49.56,20.98-10.91,42.08-21.59,63.06-32.48,25.01-12.99,49.99-26.05,74.93-39.17,22.22-11.69,44.49-23.28,66.87-34.68,19.98-10.18,39.82-20.63,59.67-31.06,27.55-14.47,55.01-29.1,82.81-43.09,5.69-2.86,11.24-6.01,16.79-9.13,9.88-5.56,19.73-5.68,29.18.63,5.47,3.65,8.2,9.25,8.61,15.89.29,4.68,0,9.31-.96,13.9-5.12,24.58-10.28,49.16-15.36,73.75-3.52,17.02-6.83,34.08-10.41,51.09-6.18,29.38-12.52,58.72-18.76,88.09-6.65,31.28-13.26,62.57-19.92,93.85-3.62,17.02-7.36,34.01-10.91,51.04-1.02,4.92-1.94,9.76-4.38,14.29-4.83,8.96-12.93,13.22-23.07,13.1-6.02-.07-11.2-2.4-16.59-4.09-23.39-7.31-46.67-14.96-69.96-22.59-23.76-7.78-47.48-15.67-71.2-23.56-3.18-1.06-6.1-2.67-8.16-5.41-3.69-4.92-3.75-9.84.41-15.62,5.36-7.46,11.07-14.67,16.68-21.94,10.62-13.78,21.3-27.51,31.9-41.3,11.42-14.85,22.79-29.74,34.16-44.64,8.92-11.69,17.82-23.39,26.71-35.11,16.14-21.28,32.26-42.58,48.39-63.87,3.18-4.2,6.41-8.36,9.57-12.56.94-1.25,2.01-2.5,1.87-5.32Z" style="fill: #06b6d4;"/>
  <path d="m417.49,123.76c-3.63,3.19-6.82,5.8-9.79,8.63-24.06,22.89-48.84,44.99-73.22,67.52-16.47,15.22-33.37,29.96-49.64,45.39-15.46,14.66-31.68,28.52-47.5,42.81-11.64,10.51-23.18,21.13-34.74,31.73-4.34,3.97-8.52,8.12-12.93,12.01-8.7,7.69-18.33,10.54-29.88,6.68-24.17-8.09-48.51-15.69-72.75-23.58-22.02-7.18-44-14.47-65.99-21.75-5.14-1.7-10-3.84-14.09-7.64-12.12-11.23-6.58-29.29,2.91-36.16,3.4-2.46,7.21-4.17,10.89-6.1,31.59-16.54,63.17-33.1,94.81-49.56,20.98-10.91,42.08-21.59,63.06-32.48,25.01-12.99,49.99-26.05,74.93-39.17,22.22-11.69,44.49-23.28,66.87-34.68,19.98-10.18,39.82-20.63,59.67-31.06,27.55-14.47,55.01-29.1,82.81-43.09,5.69-2.86,11.24-6.01,16.79-9.13,9.88-5.56,19.73-5.68,29.18.63,5.47,3.65,8.2,9.25,8.61,15.89.29,4.68,0,9.31-.96,13.9-5.12,24.58-10.28,49.16-15.36,73.75-3.52,17.02-6.83,34.08-10.41,51.09-6.18,29.38-12.52,58.72-18.76,88.09-6.65,31.28-13.26,62.57-19.92,93.85-3.62,17.02-7.36,34.01-10.91,51.04-1.02,4.92-1.94,9.76-4.38,14.29-4.83,8.96-12.93,13.22-23.07,13.1-6.02-.07-11.2-2.4-16.59-4.09-23.39-7.31-46.67-14.96-69.96-22.59-23.76-7.78-47.48-15.67-71.2-23.56-3.18-1.06-6.1-2.67-8.16-5.41-3.69-4.92-3.75-9.84.41-15.62,5.36-7.46,11.07-14.67,16.68-21.94,10.62-13.78,21.3-27.51,31.9-41.3,11.42-14.85,22.79-29.74,34.16-44.64,8.92-11.69,17.82-23.39,26.71-35.11,16.14-21.28,32.26-42.58,48.39-63.87,3.18-4.2,6.41-8.36,9.57-12.56.94-1.25,2.01-2.5,1.87-5.32Z" style="fill: #06b6d4;"/>
  <path d="m417.49,123.76c-3.63,3.19-6.82,5.8-9.79,8.63-24.06,22.89-48.84,44.99-73.22,67.52-16.47,15.22-33.37,29.96-49.64,45.39-15.46,14.66-31.68,28.52-47.5,42.81-11.64,10.51-23.18,21.13-34.74,31.73-4.34,3.97-8.52,8.12-12.93,12.01-8.7,7.69-18.33,10.54-29.88,6.68-24.17-8.09-48.51-15.69-72.75-23.58-22.02-7.18-44-14.47-65.99-21.75-5.14-1.7-10-3.84-14.09-7.64-12.12-11.23-6.58-29.29,2.91-36.16,3.4-2.46,7.21-4.17,10.89-6.1,31.59-16.54,63.17-33.1,94.81-49.56,20.98-10.91,42.08-21.59,63.06-32.48,25.01-12.99,49.99-26.05,74.93-39.17,22.22-11.69,44.49-23.28,66.87-34.68,19.98-10.18,39.82-20.63,59.67-31.06,27.55-14.47,55.01-29.1,82.81-43.09,5.69-2.86,11.24-6.01,16.79-9.13,9.88-5.56,19.73-5.68,29.18.63,5.47,3.65,8.2,9.25,8.61,15.89.29,4.68,0,9.31-.96,13.9-5.12,24.58-10.28,49.16-15.36,73.75-3.52,17.02-6.83,34.08-10.41,51.09-6.18,29.38-12.52,58.72-18.76,88.09-6.65,31.28-13.26,62.57-19.92,93.85-3.62,17.02-7.36,34.01-10.91,51.04-1.02,4.92-1.94,9.76-4.38,14.29-4.83,8.96-12.93,13.22-23.07,13.1-6.02-.07-11.2-2.4-16.59-4.09-23.39-7.31-46.67-14.96-69.96-22.59-23.76-7.78-47.48-15.67-71.2-23.56-3.18-1.06-6.1-2.67-8.16-5.41-3.69-4.92-3.75-9.84.41-15.62,5.36-7.46,11.07-14.67,16.68-21.94,10.62-13.78,21.3-27.51,31.9-41.3,11.42-14.85,22.79-29.74,34.16-44.64,8.92-11.69,17.82-23.39,26.71-35.11,16.14-21.28,32.26-42.58,48.39-63.87,3.18-4.2,6.41-8.36,9.57-12.56.94-1.25,2.01-2.5,1.87-5.32Z" style="fill: url(#bg-linear-gradient);"/>
  <path d="m221.53,433.67c0-7.83-.05-15.67.01-23.5.08-10.03,6.71-15.02,16.08-11.7,9.91,3.51,19.72,7.37,29.43,11.42,6.74,2.81,9.3,11.3,5.09,17.28-9.57,13.61-19.42,27.03-29.27,40.45-2.94,4.01-7.32,5.57-12.04,4.58-4.53-.96-7.13-4.47-8.41-8.87-.65-2.24-.93-4.54-.92-6.89.04-7.59.02-15.18.02-22.77Z" style="fill: #06b6d4;"/>
  <path d="m221.53,433.67c0-7.83-.05-15.67.01-23.5.08-10.03,6.71-15.02,16.08-11.7,9.91,3.51,19.72,7.37,29.43,11.42,6.74,2.81,9.3,11.3,5.09,17.28-9.57,13.61-19.42,27.03-29.27,40.45-2.94,4.01-7.32,5.57-12.04,4.58-4.53-.96-7.13-4.47-8.41-8.87-.65-2.24-.93-4.54-.92-6.89.04-7.59.02-15.18.02-22.77Z" style="fill: #06b6d4;"/>
  <path d="m221.53,433.67c0-7.83-.05-15.67.01-23.5.08-10.03,6.71-15.02,16.08-11.7,9.91,3.51,19.72,7.37,29.43,11.42,6.74,2.81,9.3,11.3,5.09,17.28-9.57,13.61-19.42,27.03-29.27,40.45-2.94,4.01-7.32,5.57-12.04,4.58-4.53-.96-7.13-4.47-8.41-8.87-.65-2.24-.93-4.54-.92-6.89.04-7.59.02-15.18.02-22.77Z" style="fill: #06b6d4;"/>
</svg>
