<svg xmlns="http://www.w3.org/2000/svg" version="1.1" viewBox="0 0 512 512" width="24" height="24" fill="currentColor">
    <path d="M 45.65 297.77C 50.31 280.20 56.48 263.74 64.10 247.67C 66.07 243.51 65.99 238.92 65.73 234.44Q 63.32 191.66 64.13 148.11C 64.39 134.30 66.21 57.13 87.19 55.68Q 94.10 55.20 99.69 57.92Q 109.79 62.83 121.61 72.92C 143.03 91.20 162.36 112.69 183.36 130.92C 186.54 133.67 193.35 138.99 197.10 138.76Q 198.57 138.67 200.07 138.26Q 222.12 132.30 238.17 131.29C 256.93 130.11 277.29 130.43 296.13 134.49Q 305.05 136.41 313.24 138.56C 318.37 139.92 325.54 133.72 329.51 130.33Q 339.55 121.75 347.99 113.37C 364.54 96.94 380.60 80.49 399.04 66.35C 403.86 62.66 409.75 58.98 415.36 56.95C 419.03 55.63 425.97 54.84 429.34 57.30C 433.77 60.52 436.73 66.64 438.49 71.86Q 441.73 81.45 443.26 90.82Q 447.60 117.52 448.00 151.51Q 448.45 189.74 447.59 207.00Q 446.70 225.12 446.21 240.03C 446.12 242.85 446.89 245.55 448.09 248.07Q 459.73 272.71 466.27 297.70C 467.59 302.75 468.45 308.08 467.82 313.31C 466.21 326.87 459.76 339.57 452.24 350.80Q 436.72 374.00 411.37 395.51Q 374.63 426.67 330.92 443.23Q 272.04 465.54 211.41 452.34Q 188.54 447.36 165.13 436.61Q 121.44 416.54 86.71 382.78Q 69.63 366.18 57.73 347.55C 50.80 336.69 44.86 323.90 44.03 311.09Q 43.65 305.29 45.65 297.77ZM 131.34 313.94C 140.29 332.22 157.72 341.20 177.30 342.68Q 184.65 343.24 193.22 340.65Q 202.03 338.00 205.56 330.26C 211.13 318.09 200.76 303.01 191.81 296.02C 179.37 286.31 161.98 280.10 146.19 280.97Q 137.21 281.47 131.35 287.14C 124.01 294.24 127.17 305.43 131.34 313.94ZM 349.22 281.81C 332.78 284.95 316.93 292.71 307.08 305.92C 303.14 311.22 300.42 317.96 301.07 324.43C 302.18 335.36 310.18 340.08 320.43 341.92C 336.31 344.78 355.06 339.00 366.59 328.03C 376.14 318.95 389.80 294.29 373.19 284.22C 366.55 280.20 356.95 280.33 349.22 281.81ZM 226.25 381.62C 232.99 389.35 240.71 395.69 249.97 398.50C 259.93 401.51 272.87 391.21 279.39 384.18C 281.43 381.98 283.70 379.66 284.61 376.72C 285.41 374.13 282.30 371.54 280.28 370.59Q 276.07 368.62 271.56 368.03Q 254.57 365.79 237.08 367.97Q 232.61 368.53 228.23 370.40C 225.86 371.41 222.31 374.22 223.50 377.19Q 224.45 379.55 226.25 381.62Z" />
</svg>
